# xmcd
#
# Track frame offsets:
#	150
#	18500
#	33956
#	53229
#	64931
#	79707
#	95873
#	109325
#	125620
#	139582
#	150734
#	163257
#	175820
#	191056
#	204336
#	219309
#	235068
#	249840
#	265559
#	280524
#
# Disc length: 3930 seconds
#
# Revision: 0
# Processed by: cddbd v1.5.2PL0 Copyright (c) Steve Scherf et al.
# Submitted via: EasyCDDAExtractor 10.5.1.1
#
DISCID=140f5814
DTITLE=Various Artist - Unser Bestes Volksmusik Cd 1
DYEAR=1900
DGENRE=volksmusik
TTITLE0=Kastelruther Spatzen - Ja, Ich Will
TTITLE1=Patrick Lindner - Weil Wir Alle Keine Engel Sind
TTITLE2=Nockalm Quintett - Hände Weg Von Meinen Herzen
TTITLE3=Klostertaler - Drah Di Um Madl
TTITLE4=Stefanie Hertel - Tausendmal Stärker
TTITLE5=Captain Cook Und Seine Singenden Saxophone - Nimm Mein Herz Als Souven
TTITLE5=ir
TTITLE6=Marianne and Michael - Auf Immer Und Ewig
TTITLE7=Monika Martin - Komm, Setz Mein Herz In Flammen
TTITLE8=Die Edlseer - Um Die Hauser Zieh'n
TTITLE9=Stefan Mross - Die Herzen Auf, Die Musi Kommt
TTITLE10=Die Stoakogler - Die Musi Ist Für Alle Da
TTITLE11=Florian Silbereisen - A Bisserl Was Geht Immer
TTITLE12=Gaby Albrecht - Hör' Mein Lied
TTITLE13=Marcel - Sterne Der Sierra
TTITLE14=Géraldine Olivier - Boom-Bang, Mei Herz Ist In Gefahr
TTITLE15=Edward Simoni - Oh Happy Day
TTITLE16=Bianca - Lila La Luna
TTITLE17=Original Naabtal Duo - Eine Tür Steht Immer Offen
TTITLE18=Sheila - Die Stimme Der Sehnsucht
TTITLE19=Mara Kayser - Mein Herz, Das Ruft Nach Liebe
EXTD=
EXTT0=
EXTT1=
EXTT2=
EXTT3=
EXTT4=
EXTT5=
EXTT6=
EXTT7=
EXTT8=
EXTT9=
EXTT10=
EXTT11=
EXTT12=
EXTT13=
EXTT14=
EXTT15=
EXTT16=
EXTT17=
EXTT18=
EXTT19=
PLAYORDER=
